<?xml version="1.0" encoding="UTF-8"?>
<svg version="1.1" viewBox="0 0 1348 1220" width="1280" height="1280" xmlns="http://www.w3.org/2000/svg">
<path transform="translate(954,70)" d="m0 0 3 4 3 10 1 5v18l-4 16-4 9 1 3 8 4 7 1 6-3 5-5 3-6 2-13h2l2 11v20l-3 14-6 17 9 2h7l8-4 3-4h2l-1 9-6 21-8 16-4 11v12l4 20v7l-3 10-6 10-9 10-9 9-14 11-15 9-14 7-16 6-1 18 2 30 3 16 13 3 16 4 16 6 17 9 16 11 14 12 7 7 7 10 11 20 4 12 3 19 3 41 1 32v41l-1 28-2 19-4 20-6 15-1 1v90l-4 36-5 27-6 21-3 8v5l5 2 7-1 7-6 10-20 4-5 6-3h7l19 5 24 7 23 4 21 2 36 1 3 4 1 10-5 5-17 10-17 7-14 4-13 2-7 3-6 1h-33l-8-1-8 13h-2v2l-8 5-5 2 2 6v6l-8 10-9 10-8 7-13 11-18 13-20 13-14 8 7-1 21-4 18-2h56l62 4 25 2 7-25 5-10 3-2 6 4 12-24 4-6 8-8 4-2h3l2-4 6-11 9-13 9-10 9-8 5-1-1 6-7 18-6 14-8 16-2 5 12-8h2l-1 6-11 23-15 28-6 10-3 6 12 1 5 2v2h-10l-9-1-5 1-2-2-31-2-19-2-75-5h-58l-26 4-22 6-21 9-29 17-20 12-25 14-25 12-25 9-18 4-10 1h-13l-17-3-14-6-12-9-7-8-5-8v-2l-17 2-11 1h-17l-17-3-12-5-10-8-7-10-5-13-2-9-1-9v-22l3-19 5-16 8-16 6-10 13-16 31-31 8-7 28-24-3-1-57-5h-36l-12 3-16 9-21 16-19 14-16 12-6 4h-3l2-4 14-10 26-20 16-12 16-10 12-5 14-2h15l42 3 21 2h18l12-11 14-11 13-11 28-22 13-10 10-8 9-14 2-5-4-2-23-10-4-5 1-5 4-5 7-1 22 4-1-2-4-36-7-38-8-30-12-38-7-27v-2h-2l-2 5-7 8-9 12-17 17-13 10-15 9-15 7-14 4h-16l-11-4-8-6-7-8-8-16-4-20-3-32-1-21v-30l2-36 5-44 1-11-9-10-5 1-10 10-5 3-9-2-8-6-4-8-1-7 3-6 17-16 3-3 3-21 4-10 7-11 7-9 5-5 9-6 8-1 7 4v2l4 1 14-12 6-5 7 6 11 8 6 4-2 4-10 8-3 2 2 4 3 7-1 11-2 8v16l-4 14-6 12v23l3 38 6 52 2 22 1 19 3-1 7-8 9-10 12-16 15-23 14-22 19-28 5-5 15-11 17-10 22-10 15-5h3l-1-11-25 9-13 3-11 1-10-4-9-6-10-9-10-13-9-17-6-18-4-18-1-8v-31l2-18 1-3-16 10-11 8-19 13h-2l2-4 8-6 30-21 6-4h2l4-19 2-6-6 2-19 11-24 15-6 3-3-1 8-6 28-17 22-13 1-1v-10l-4 4h-2l-2 6-3 1 1-6 6-7 2-1 1-23 5-19 8-16 11-12 12-7 12-4 30-7 15-5 16-8 11-7 10-8 10-9 9-9 4-6 3-1-2 11-4 24h17l13-4 8-5 7-7 6-11 2-6zm68 834-3 10-2 5h2l4-9v-6zm202 18-8 7-8 9-12 20-5 10v3h-3l-1-5-6 4-7 9-7 15-5 14v2h-2l-1-5-2-3-4 1-4 8-5 18v6l23 2h14l8-13 10-19 9-17 5-11-2-1-6 5-7 9-5 2 5-10 10-19 10-22 7-17z" fill="#F2BBCF"/>
<path transform="translate(1024,714)" d="m0 0h1l1 33v22l-2 1-2 37-4 33-4 22-5 19-7 16-8 13-9 10-12 12-11 9-15 13-14 11-10 9-11 9-13 11-16 13-13 10-1 2 6-2 14-12 14-11 14-12 11-9 13-11 11-9 14-12 14-11 10-10 7-10 7 3 14 11 10 13 5 10 3 8v9l-9 10h-2v2h-2v2l-8 7-12 11-18 13-15 10-22 14-27 16-50 30-22 12-22 11-24 9-17 4-8 1h-24l-16-4-13-7-11-10-8-14-4-10-2-9-1-9v-16l3-21 4-15 8-19 7-14 12-19 13-17 12-14 9-10 18-18h2v-2l11-9 11-10 11-9 13-11 28-22 2-4-10-6-5-1 2-5 9-9 9-5 20-6 29-11 23-10 19-9 24-14 15-9 11-8 5-4 5-5z" fill="#FCFCFC"/>
<path transform="translate(954,70)" d="m0 0 3 4 3 10 1 5v18l-4 16-4 9 1 3 8 4 7 1 6-3 5-5 3-6 2-13h2l2 11v20l-3 14-6 17 9 2h7l8-4 3-4h2l-1 9-6 21-8 16-4 11v12l4 20v7l-3 10-6 10-9 10-9 9-14 11-15 9-14 7-16 6-1 18 2 30 4 22 1 4-6 12-11 12-13 8-10 4-9 1-5-10-8-25-3-14-25 9-13 3-11 1-10-4-9-6-10-9-10-13-9-17-6-18-4-18-1-8v-31l2-18 1-3-16 10-11 8-19 13h-2l2-4 8-6 30-21 6-4h2l4-19 2-6-6 2-19 11-24 15-6 3-3-1 8-6 28-17 22-13 1-1v-10l-4 4h-2l-2 6-3 1 1-6 6-7 2-1 1-23 5-19 8-16 11-12 12-7 12-4 30-7 15-5 16-8 11-7 10-8 10-9 9-9 4-6 3-1-2 11-4 24h17l13-4 8-5 7-7 6-11 2-6z" fill="#F2BBCF"/>
<path transform="translate(467,206)" d="m0 0h76l8 2 8 6 5 8 13 33 7 18-2 5-6 9-12 20-13 21-12 19-15 24-16 25-14 22-11 17-2 1-13-17-11-14-32-42-9-12-16-21-10-14-14-19-12-16-4-6 1-5 14-30 9-19 6-8 10-6z" fill="#FAFAFA"/>
<path transform="translate(990,460)" d="m0 0h8l10 3 9 7 6 8 5 11 4 20 3 34 2 51v20l-2 49-2 17-3 14-7 16-9 12-13 11-18 11-27 15-17 8-14 7-31 12-29 10-11 7-8 8-8 7-9 7-4 5-8 7-7 7h-2l-1 3-8 6-10 3-5-2-3-2-9-1-2-1v-3l12-4h13l3-3 3-6 17-17 5-9-5 4-7 8-10 10-13 8-13 5-11 2h-7l-5-3v-2l15-8 16-7 10-7 8-14 6-10 8-16 4-5-5-6-8-4-15-5-3-2v-6l4-4 12 1 39 9 12 2 16-8 14-8 18-12 13-10 12-11 33-33 12-9h2v-2l-6 1 1-11v-77l-2-46v-37l2-15 5-12 8-6z" fill="#FBFAFA"/>
<path transform="translate(824,190)" d="m0 0h12l12 3 11 6 23 15 6 4 1 7-1 26-3 22-5 22-6 20-10 24-11 20-10 14-11 14-12 12v3l-11 6-8 1-10-4-9-6-12-12-9-14-8-17-6-20-3-18v-30l3-23 4-5 6-4h2v16l2 8h2l1-6v-18l-1-6-4 2-6 5-4 1 1-9 4-16 15-8 4 2 1 3h3l-6-9-4-3 1-4 8-7 19-10 15-5z" fill="#FBFAFA"/>
<path transform="translate(846,816)" d="m0 0 10 5 3 3-1 3-5 3-13 11-14 11-11 9-12 11-11 9-16 15-20 20-1 2h-2l-2 4-11 13-11 16-8 13-7 12-8 18-5 17-3 13-1 10v23l3 15 2 8-7 2-18 2h-17l-14-2-13-5-9-6-6-7-6-13-3-12-1-8v-21l3-20 5-16 8-16 10-15 8-9 7-8 18-18 11-9 7-7 8-7 13-11 11-9 13-12 10-8 6-5h3l2 5 3 2 12 2 12 6 11 3 9-2 10-6 9-7 14-14 1 2-10 13-5 4-4 1v2l8-2 7-6 12-18z" fill="#FBFBFB"/>
<path transform="translate(989,457)" d="m0 0h11l10 3 10 7 9 16 4 12 3 19 3 41 1 32v41l-1 28-2 19-4 20-6 15-6 10-4 4h-2l-2 4-12 9-18 11-28 16-26 12-27 11-30 10-10 4-10 9-4 6 7 1 9 6-3 5-14 11-11 9-13 11-11 9-14 12-9 8h-2v2l-8 7-18 18-9 11-10 12-10 14-8 13-6 10-9 21-5 16-3 15-1 10v16l2 14 4 12 7 13 7 8 10 7 11 5 13 3h24l17-3 16-5 20-8 28-14 27-16 22-13 28-17 12-7 11-7 23-15 14-10 10-8 10-9 3-1 2-4h2v-2h2v-2l10-10v-9l-5-13-6-9-8-10-15-11h-4l-9 11-9 9-10 8-26 22-10 8-14 12-10 8-13 11-10 8-13 10-5 1 3-5 13-10 17-14 14-12 11-9 13-11 11-9 14-12 11-9 8-7 9-11 7-10 7-15 5-16 4-18 3-18 3-27 2-37 3-1v32l-4 36-5 27-6 21-3 8v5l5 2 7-1 7-6 10-20 4-5 6-3h7l19 5 24 7 23 4 21 2 36 1 3 4 1 10-5 5-17 10-17 7-14 4-13 2-7 3-6 1h-33l-8-1-8 13h-2v2l-8 5-5 2 2 6v6l-8 10-9 10-8 7-13 11-18 13-20 13-14 8 7-1 21-4 18-2h56l62 4 25 2 7-25 5-10 3-2 6 4 12-24 4-6 8-8 4-2h3l2-4 6-11 9-13 9-10 9-8 5-1-1 6-7 18-6 14-8 16-2 5 12-8h2l-1 6-11 23-15 28-6 10-3 6 12 1 5 2v2h-10l-9-1-5 1-2-2-31-2-19-2-75-5h-58l-26 4-22 6-21 9-29 17-20 12-25 14-25 12-25 9-18 4-10 1h-13l-17-3-14-6-12-9-7-8-5-8v-2l-17 2-11 1h-17l-17-3-12-5-10-8-7-10-5-13-2-9-1-9v-22l3-19 5-16 8-16 6-10 13-16 31-31 8-7 28-24-3-1-57-5h-36l-12 3-16 9-21 16-19 14-16 12-6 4h-3l2-4 14-10 26-20 16-12 16-10 12-5 14-2h15l42 3 21 2h18l12-11 14-11 13-11 28-22 13-10 10-8 9-14 2-5-4-2-23-10-4-5 1-5 4-5 7-1 17 3 25 6 16 3 8-3 15-9 19-12 19-14 10-9 39-39 2-6 1-8 1-34v-24l-2-50-1-15v-37l4-22 5-8 8-6zm1 3-9 3-6 5-5 12-2 15v37l2 46v77l-1 11 6-1v2l-5 2-13 11-37 37-13 10-14 10-16 10-22 11-25-5-26-6-12-1-4 4v6l6 3 17 6 8 7-3 5-8 14-6 11-7 13-4 5-11 6-25 12-3 2 2 4 3 1 14-1 15-5 12-7 10-9 9-9 4-5 2-1-5 9-18 18-3 7-2 1h-13l-12 4v3l2 1 9 1 7 4 8-2 7-4 5-4v-2l4-2 11-11 5-4 5-5 11-10 8-7 8-6 10-5 35-12 24-10 29-14 29-16 15-10 13-11 9-13 6-14 4-20 2-32 1-28v-20l-2-51-3-34-4-20-7-14-7-8-6-4-10-3zm-144 356-12 18-8 11-7 5-6 1v-2l6-2 9-10 4-6-1-2-17 17-6 4-10 6-9 2-13-4-13-6-9-1-4-3-1-4-4 1-13 11-11 9-13 12-10 8-11 10-8 7-10 9-8 7-18 18-8 10-7 10-8 14-5 10-5 18-2 16v21l3 16 5 13 6 9 6 5 14 7 9 2 9 1h17l24-3 1-3-4-14-1-7v-23l2-14 5-20 5-12 6-13 10-18 8-12 9-12 11-13v-2h2l7-8 23-23 8-7 14-12 11-10 13-10 13-11 9-7 6-4-2-4-5-3-4-3zm176 88-3 10-2 5h2l4-9v-6zm202 18-8 7-8 9-12 20-5 10v3h-3l-1-5-6 4-7 9-7 15-5 14v2h-2l-1-5-2-3-4 1-4 8-5 18v6l23 2h14l8-13 10-19 9-17 5-11-2-1-6 5-7 9-5 2 5-10 10-19 10-22 7-17z" fill="#020202"/>
<path transform="translate(662,329)" d="m0 0 8 1 11 4 9 6 1 2v11l-2 4v20l-3 12-6 13-1 4v25l3 35 7 63 1 12v36h2v-10l16-16 9-11 12-16 14-22 16-25 8-12 4-2v38l2 33 4 33v5h-2l-2 5-9 9-8 10-11 10-21 10-17 5-5 1h-19l-12-2-10-6-7-9-3-9-3-23-2-34-1-25v-61l2-35 4-17 15-36 6-8-1-4-10-8-4-6 2-5z" fill="#FBFBFB"/>
<path transform="translate(1022,770)" d="m0 0h1v23l-3 31-3 22-4 20-4 15-7 16-8 13-9 10-12 12-11 9-15 13-14 11-10 9-11 9-13 11-16 13-13 10-1 2 6-2 14-12 14-11 14-12 11-9 13-11 11-9 14-12 14-11 10-10 7-10 7 3 14 11 10 13 1 4h-4v2l-11 9-10 9-11 9-13 10-23 16-20 12-14 8-23 12-19 9-27 11-19 6-10 2h-12l-3-2 1-6 7-8 21-21 8-7 10-9 13-13h2l2-4h2l2-4h2l2-4 13-13 7-8 12-14 10-13 13-18 12-19 10-17 11-21 12-29 7-19 7-23 5-3 18-9h3z" fill="#989696"/>
<path transform="translate(429,223)" d="m0 0 89 1-2 22 8 3 16 7 19 9 20 9-2 6-9 14-14 23-10 16-36 57-7 11-11 17-5 8h-2l1-12 5-27 6-34 10-49 9-41v-7l-8 32-10 48-8 42-6 36-2 6-2-3-4-13-13-56-13-53-11-44v-4l33 1h41l2-2-77-1-3-7-4-13z" fill="#FAFAFA"/>
<path transform="translate(681,301)" d="m0 0 7 6 11 8 6 4-2 4-10 8-3 2 2 4 3 7-1 11-2 8v16l-4 14-6 12v23l3 38 6 52 2 22 1 19 3-1 7-8 9-10 12-16 15-23 14-22 17-25 2 1-1 5-4 5-15 23-16 25-10 15-9 12-13 15-10 10h-2v10l-1 2h-2l-1-36-5-49-5-46-1-15v-25l4-10 5-13 1-13v-13l2-4v-11l-5-5-8-4-10-3h-5l-4 7 2 5 4 5 9 7-1 5-6 8-10 24-5 14-3 13-2 35v61l2 46 3 31 3 12 6 9 9 6 7 2 7 1h19l16-4 17-7 11-6 12-11 8-10 8-9h3l-2 5-7 8-9 12-17 17-13 10-15 9-15 7-14 4h-16l-11-4-8-6-7-8-8-16-4-20-3-32-1-21v-30l2-36 5-44 1-11-9-10-5 1-10 10-5 3-9-2-8-6-4-8-1-7 3-6 17-16 3-3 3-21 4-10 7-11 7-9 5-5 9-6 8-1 7 4v2l4 1 14-12z" fill="#050505"/>
<path transform="translate(750,216)" d="m0 0h16l7 6 4 6v2h-3l-3-4-6 2-10 5-5 21v3l7-4 4-4 3 1 1 6v18l-2 7-3-1-2-8 1-16-10 7-2 7-2 18v30l3 18 6 20 10 21 9 12 10 10 10 6 8 3 11-2 6-4h2l-1-3 14-14 15-20 9-15 8-15 9-23 7-24 4-20 2-17 1-26v-5h3l6 17 7 26 1 9 13-8 6-2h12l8 3 7 8 1 3v15l-5 13-9 11-10 7-10 2h-9l-2 31 2 30 4 22 1 4-6 12-11 12-13 8-10 4-9 1-5-10-8-25-3-14-25 9-13 3-11 1-10-4-9-6-10-9-10-13-9-17-6-18-4-18-1-8v-31l2-18 1-3-16 10-11 8-19 13h-2l2-4 8-6 30-21 6-4h2l4-19 2-6-6 2-19 11-24 15-6 3-3-1 8-6 28-17 22-13 1-1v-10l-4 4h-2l-2 6-3 1 1-6 6-7z" fill="#989696"/>
<path transform="translate(467,206)" d="m0 0h76l8 2 8 6 5 8 13 33 7 18-2 5-6 9-12 20-13 21-12 19-15 24-16 25-14 22-11 17-2 1-13-17-11-14-32-42-9-12-16-21-10-14-14-19-12-16-4-6 1-5 14-30 9-19 6-8 10-6zm-77 11-3 5-18 38-5 11 1 2 19-9 31-13 9-3-3 3-35 15-18 8-3 3 10 13 13 18 15 20 14 19 10 13 12 16 13 17 20 26 3 4h2l-17-68-16-66-10-41-8-23-1-2-29-6zm39 6 3 12 3 9 1 1 77 1-2 2h-41l-33-1 1 7 17 69 21 89 3 8 2-2 4-22 9-50 10-49 7-30 3-11v7l-12 55-11 56-6 35-2 11v6l3-1 9-15 10-15 11-18 11-17 12-19 10-16 14-23 13-21 3-5v-2l-37-17-15-7-7-3-4-1 1-15 1-7z" fill="#050505"/>
<path transform="translate(1008,464)" d="m0 0 4 2 6 5 6 9 5 13 3 16 3 34 2 51v20l-2 49-2 17-3 14-7 16-9 12-13 11-18 11-27 15-17 8-14 7-31 12-29 10-11 7-8 8-8 7-9 7-4 5-8 7-7 7h-2l-1 3-8 6-10 3-5-2-3-2-9-1-2-1v-3l12-4h13l4-3h3l7-7 9-7 10-9 5-2 2-4 14-14 7-8 2-2 28-8 36-12 24-10 14-8 10-9 7-8 9-15 8-20 8-27 6-31 6-49 4-47v-28l-3-27-4-19z" fill="#989696"/>
<path transform="translate(750,216)" d="m0 0h16l7 6 4 6v2h-3l-3-4-6 2-10 5-5 21v3l7-4 4-4 3 1 1 6v18l-2 7-3-1-2-8 1-16-10 7-2 7-2 18v30l3 18 6 20 10 21 9 12 10 10 10 6 8 3 11-2 16-4 21-9 11-7 13-11 8-8 10-14 8-16 3-7 3-12h3l1 1h14l10-5 7-7 4-7 3-8 1-5v-9l-3-7-6-4-3-1h-12l-9 4-4 2-3-1 8-6 8-3h12l8 3 7 8 1 3v15l-5 13-9 11-10 7-10 2h-9l-2 31 2 30 4 22 1 4-6 12-11 12-13 8-10 4-9 1-5-10-8-25-3-14-25 9-13 3-11 1-10-4-9-6-10-9-10-13-9-17-6-18-4-18-1-8v-31l2-18 1-3-16 10-11 8-19 13h-2l2-4 8-6 30-21 6-4h2l4-19 2-6-6 2-19 11-24 15-6 3-3-1 8-6 28-17 22-13 1-1v-10l-4 4h-2l-2 6-3 1 1-6 6-7z" fill="#040404"/>
<path transform="translate(664,368)" d="m0 0 1 2-9 21-5 14-3 13-2 35v61l2 46 3 31 3 12 6 9 9 6 7 2 7 1h19l16-4 17-7 7-4 2 1-8 8h-2v2l-16 12-15 8-15 5-4 1h-13l-12-4-12-11-8-16-4-15-3-33-2-36v-19l4-51 5-37v-5l-10-9-1-4 12-12 6-5 7-8 9-9z" fill="#989696"/>
<path transform="translate(1024,714)" d="m0 0h1l1 33v22l-4 1v2l-24 11-2 2-25 8-26 6-23 2h-13l-28-2-6-3 3-2 24-8 34-14 23-11 24-14 15-9 11-8 5-4 5-5z" fill="#F1BBCE"/>
<path transform="translate(422,942)" d="m0 0 3 3 7 20 30 86 13 36-3-25v-28h4l3 4-1 4-1 1v24l4 28 6 25 5 17v3h-3l-6-16-11-31-30-87-11-31-8-21h-1v13l3 24 5 12v2l-4-1-6-10-7-8 1 15 3 20 6 25 7 21 10 21 3 4v3h-4l1 7 5 16 10 21 4 6v2l-4 2 3 10 9 15 8 10 8 8 16 8 11 3h13l12-2-2-9-15-50-16-53-10-33-4-11 1 14-4-1-4-10-1-6 4-4 1-2 4 2 5 10 9 29 20 66 17 56 9-1 6-1h10l27 7 6-1 2-1 1 5-7 1-14-2-17-5h-8l-30 6h-19l-12-4-17-8h-12l-13 5-16 8-15 8h-5l3-3 22-12 6-3-24-8-49-15-16-4-9 5-13 9-24 14-29 14h-4l2-4 16-7 16-8 22-13 14-10 6-4h7l20 6 49 15 18 6h6l10-3h8l2 1-13-17-9-16-4-9 1-4 1-5-8-16-7-19-3-12-3-16-10-25-5-17-5-26-2-23v-7h4l7 6-2-16v-11l2-10z" fill="#FCFBFB"/>
<path transform="translate(201,696)" d="m0 0 3 1 8 16 15 31 15 33 8 18 7 15 9 20-3-15v-7l5-5 4 2 6 13 1 1v-22l1-3 3 1 11 25 8 19 15 33 9 19 9 17 9 19 18 33-1 4-5-6-13-25-12-22-11-22-13-28-11-24-11-27v12l5 16 5 12v2l-4-2-5-8-13-26-4-6v-2h-2l2 14 5 17 12 36 2 9-4-2-16-37-15-33-12-27-16-34-13-28-8-16 1 13 4 21 6 20 10 26 12 27v2l-5-1-4-4 4 14 12 28 10 19 11 19 10 16v3h-3l9 17 11 18 7 11 12 17 1 5-4-2-11-15-13-21-14-24-12-21-13-22-9-14-11-16-12-14-4-4 10 26 9 20 10 20 8 14v2l-7-2 5 12 7 11v3l-3 2 2 5 8 10 11 12 11 11 8 7-4 1-10-8-16-17-9-10-6-9 1-5 1-4-10-19-2-5 1-5h2l-8-16-10-21-10-25-7-20 2-1 6 4 10 11 9 11 7 10 12 18-9-19-5-11-10-26 2-3h4l-3-10-9-20-12-36-4-19-1-7v-20zm82 111m-16 24 1 2zm1 2 1 2zm-20 36 1 2z" fill="#FCFCFC"/>
<path transform="translate(901,340)" d="m0 0 2 1 1 27 3 27 2 11v8l-3 6-6 8-7 5-4 4-12 6-8 2-5-5-8-24-3-11v-5l14-10 15-15 8-13 10-18z" fill="#F9F9F9"/>
<path transform="translate(626,333)" d="m0 0 9 3 11 9 4 5 1 4-4 6h-3l-12-17-5-4-5 1v2l5 1 7 7 7 10-1 7-5 3-7-1-6-4-4-5-3-1 4 6 6 5 5 2h6l6-4 4-5 5-5 3-5 3-7 4 2 8 6-2 5-10 9-14 15-9 9-8 7-13 13-5 3-1-9-7-8-7-4 2-4 11-11 11-9-5-3 1-13 4-10 3-3 2-5z" fill="#F8F7F7"/>
<path transform="translate(1228,914)" d="m0 0h3l-1 6-7 18-6 14-8 16-2 5 12-8h2l-1 6-11 23-15 28-6 10-3 6 12 1 5 2v2h-10l-9-1-5 1-2-2-31-2-19-2-75-5h-58l-26 4-22 6-10 3 4-4 10-5 23-5 24-3h56l62 4 25 2 7-25 5-10 3-2 6 4 12-24 4-6 8-8 4-2h3l2-4 6-11 9-13 9-10 9-8zm-4 8-8 7-8 9-12 20-5 10v3h-3l-1-5-6 4-7 9-7 15-5 14v2h-2l-1-5-2-3-4 1-4 8-5 18v6l23 2h14l8-13 10-19 9-17 5-11-2-1-6 5-7 9-5 2 5-10 10-19 10-22 7-17z" fill="#FCFCFC"/>
<path transform="translate(429,223)" d="m0 0 89 1-2 20-2 2-78-1-3-7-4-13z" fill="#FCFCFC"/>
<path transform="translate(553,217)" d="m0 0h5l5 11 13 34 3 9-21-9-22-11-16-6-2-3 3-18 7-2z" fill="#F9F9F9"/>
<path transform="translate(901,340)" d="m0 0 2 1 1 27 3 27 2 11v8l-3 6-6 8-5 4h-2l-6-16-5-21-2-15-2-1 6-7 16-28z" fill="#989696"/>
<path transform="translate(907,1138)" d="m0 0h17l49 3 193 18 31 3 5 1v3h-10l-29-3-86-8-118-11-46-2-38 2-29 5-31 8-26 8-28 10h-5l1-3 37-13 31-9 30-7 21-3z" fill="#FCFCFC"/>
<path transform="translate(402,210)" d="m0 0h147l2 2v3l-16 4-8 1h-104l-16-3-10-2z" fill="#FBFBFB"/>
<path transform="translate(87,952)" d="m0 0 11 1 29 9 33 10 36 11 9-1 18-9 4-1h11l12 3 4 3v2l-9-2-8-2h-11l-19 10 8 3 19 6 2 4-7-1-38-12-75-23-25-7-5 1-12 11-6 4-7 2h-26l-8 3-7 6-7 8-9 8-4 1 1-4 9-7 12-13 8-5 3-1h28l10-5 11-10z" fill="#FCFCFC"/>
<path transform="translate(159,1084)" d="m0 0 20 1 30 5 27 5 8 1h28l12-2 19-5h15l26 6 22 2-1 3-21-1-29-6h-12l-23 6-19 2-26-2-44-8-22-3h-10l-30 5-23 7-24 10-24 11h-4l2-4 36-16 28-10 17-4z" fill="#FCFCFC"/>
<path transform="translate(376,929)" d="m0 0h10l41 7 84 16 39 7h5l13-11 8-5 6-1 25 4 17 1v3l-9 1-20-2-11-2-9 1-13 10-2 2 7 3 5 2v2l-9-1-119-22-46-9-7-1h-16l-5 4-4 9h-2l1-8 5-7z" fill="#FCFCFC"/>
<path transform="translate(139,531)" d="m0 0h9l8 4 5 8v10l-3 6-6 5-5 2-10-1-7-5-3-5-1-10 4-8 5-4z" fill="#F3BCD0"/>
<path transform="translate(1183,89)" d="m0 0h8l13 5 2 1h12l9-3h7l13 4 9 3 12 1 7-3 4-1v3l-5 4-3 1h-14l-21-7-9-1-7 3-12 1-16-6h-9l-10 4-13 8-9 3h-8l-11-4-10-4-7 1-16 8-6 2-7-1-11-7-8-4-3-1h-13l-7 3-4 1 2-4 4-3 8-2 13 1 12 6 10 6 9-1 17-9h9l15 6 7 2 9-1 14-8 9-5z" fill="#FBFBFB"/>
<path transform="translate(327,90)" d="m0 0 2 1 2 18 5 12 8 11 9 8 8 4-1 4-10 8-8 11-8 15-6 17h-2l-5-15-8-16-6-9-14-14 12-7 9-10 8-16 2-7 1-13zm-1 21-6 14-7 9-8 8-5 3 2 4 8 8 7 10 5 10 3 11 3-1 8-17 9-13 10-10-5-5-8-7-8-11-7-13z" fill="#FDFDFD"/>
<path transform="translate(626,333)" d="m0 0 9 3 11 9 4 5 1 4-4 6h-3l-12-17-5-4-5 1v2l5 1 7 7 7 10-1 7-5 3-7-1-6-4-4-5-5-1 1-9 5-8 3-6z" fill="#F6F5F5"/>
<path transform="translate(1341,894)" d="m0 0h3l-2 5-7 5-12 3h-14l-59-5-28-3h-16l-12 2-16 7-17 10-15 10-15 11-4 1 2-4 10-8 24-16 16-9 14-6 8-2h25l49 5 38 3h9l9-2 8-5z" fill="#FCFCFC"/>
<path transform="translate(618,858)" d="m0 0h15l42 3 36 3 2 2-3 2-17-1-46-4h-36l-12 3-16 9-21 16-19 14-16 12-6 4h-3l2-4 14-10 26-20 16-12 16-10 12-5z" fill="#FBFBFB"/>
<path transform="translate(1171,178)" d="m0 0h9l16 8 4 1 8-2 14-5h13l7 3h8l14-3 14 1 11 4 2 4-7-1-9-3-6-1h-8l-10 3h-11l-11-4-10 2-16 6-8-1-18-8-10 2-14 7-10 1-15-4-9-3h-8l-6 5h-2l1-5 6-4h12l17 6h12l17-8z" fill="#FCFCFC"/>
<path transform="translate(682,304)" d="m0 0 4 2 11 7 5 4 2 2-10 7-7 6-7-1-9-3-8-2-1-4 5-5 12-11z" fill="#F8F8F8"/>
<path transform="translate(1044,312)" d="m0 0h8l14 3 10 2 10-1 15-2 13 3 2 1h12l4-2h12l21 5 4 3v2l-7-1-15-4-14-1-7 3h-9l-12-4h-12l-13 3-12-2-16-4h-7l-8 7-6 1-13-5-10-1-8 3-4 2-1-2 5-5 6-2h10l11 4 6 2 6-4z" fill="#FCFCFC"/>
<path transform="translate(789,331)" d="m0 0h7l3 4 2 13v11l-2 8-3 2-6-1-5-6-3-10v-8l3-10z" fill="#F3F2F2"/>
<path transform="translate(491,74)" d="m0 0h8l23 5 12 1 3 1v2l-5 1-15-2-18-4h-7l-12 5-10 4h-10l-18-6-5-1h-11l-12 7-9 1-6-1-14-7-8-1-7 6v-4l4-5 9-1 11 4 9 5h8l14-8h13l21 6 9 1 13-5z" fill="#FCFCFC"/>
<path transform="translate(704,994)" d="m0 0 1 4-4 13-3 13-1 10h-1v-9h-20l-4-2 1-5 7-7 13-10 5-4z" fill="#989696"/>
<path transform="translate(130,138)" d="m0 0 8 2 5 5 1 2v7l-4 7-6 3h-7l-6-4-3-5v-7l4-6 4-3z" fill="#F3BCD0"/>
<path transform="translate(382,724)" d="m0 0h12l16 3 11 2h10l24-3 14 3 4 2h7l13-6h12l7 1h17l6-2 1 3-6 3-4 1h-9l-17-2-9 1-10 5h-8l-13-4h-15l-18 3-9-1-16-4-20-2z" fill="#FBFBFB"/>
<path transform="translate(1160,421)" d="m0 0 9 2 5 6v8l-4 6-5 3-9-1-5-5-2-4 1-7 3-5z" fill="#F3BCD0"/>
<path transform="translate(401,835)" d="m0 0h22l53 7 11 2 2 3h-9l-54-7-10-1h-12l-10 2-12 5-12 6h-3l2-4 15-8 12-4z" fill="#FCFBFB"/>
<path transform="translate(647,782)" d="m0 0h8l7 6 1 7-4 6-5 3-8-1-5-5-1-2v-6l4-6z" fill="#F3BCD0"/>
<path transform="translate(1273,659)" d="m0 0h8l6 4 2 4-1 6-3 5-6 3-8-2-4-4-1-8 3-5z" fill="#F3BDD0"/>
<path transform="translate(787,237)" d="m0 0 2 1-7 49-2 23v5l4-4 5-9h2l-1 6-10 15-3 2-1-1v-20l4-33 5-30z" fill="#010101"/>
<path transform="translate(799,798)" d="m0 0 1 4-3 4-3 6-5 6-14 8-18 8-2-1 13-11 16-12 13-10z" fill="#EFEEEE"/>
<path transform="translate(639,378)" d="m0 0h2l-1 4-11 10-7 6v2l-2 1-1 5-10 9h-1l-1-9-2-4 5-4 9-5z" fill="#9E9A9A"/>
<path transform="translate(789,331)" d="m0 0h7l3 4 2 13v11l-2 8-3 2-6-1-5-6-3-10v-8l3-10zm0 3-3 5-1 9 3 14 4 3 5-2 1-11-2-15-4-3z" fill="#010101"/>
<path transform="translate(626,333)" d="m0 0 9 3 11 9 4 5 1 4-4 6h-3l-12-17-5-4-5 1v2l-2-1 2-5z" fill="#F2F1F1"/>
<path transform="translate(1048)" d="m0 0h6l6 7v7l-6 5-7-1-4-4-1-6 4-6z" fill="#F3BCD0"/>
<path transform="translate(632,323)" d="m0 0 6 1 11 9 5 8-1 5-4-1-7-7-9-6-5-3 3-5z" fill="#F2F1F1"/>
<path transform="translate(646,314)" d="m0 0 5 1 5 4 4 5-1 4-3 5-2 2-10-10-5-4 2-4z" fill="#F3F2F3"/>
<path transform="translate(1044,312)" d="m0 0h8l9 2-1 3-15-1-8 7-6 1-13-5-10-1-8 3-4 2-1-2 5-5 6-2h10l11 4 6 2 6-4z" fill="#F8F7F8"/>
<path transform="translate(45,850)" d="m0 0 6 1 4 4v7l-6 5-7-1-3-3-1-6 3-5z" fill="#F3BDD1"/>
<path transform="translate(590,395)" d="m0 0h2l11 11 2 11-2 1-7-3-2-1v-2h-2l-3-6-1-7z" fill="#989696"/>
<path transform="translate(820,213)" d="m0 0h16l11 6 8 8 3 5-1 3-9-9v-2l-4-2-8-5-5-1h-7l-9 3-4 4h-2l-2 4-3-1 6-8z" fill="#010101"/>
<path transform="translate(571,115)" d="m0 0h2l-2 4-14 11-12 11-9 9-3 1 2-5 12-13 11-9 10-8z" fill="#0C0C0C"/>
<path transform="translate(576,603)" d="m0 0 6 1 3 5-2 6-2 2h-7l-4-4v-5l3-4z" fill="#F3C2D4"/>
<path transform="translate(520,106)" d="m0 0 3 1-2 15-4 18-3 8h-3l6-30 1-10z" fill="#0F0F0F"/>
<path transform="translate(597,161)" d="m0 0 5 1v3l-36 3-9 2-1-3 9-3 17-2z" fill="#0E0D0D"/>
<path transform="translate(643,376)" d="m0 0 1 2h2l-2 4-10 10-8 7-5 5h-2l1-4 7-8 11-9 2-2 1-4z" fill="#E4D8DC"/>
<path transform="translate(782,843)" d="m0 0h7l2 5-12 3h-7l-2-1v-3z" fill="#F1F0F0"/>
<path transform="translate(762,219)" d="m0 0h5v4l-7 4-8 2-1-8z" fill="#EDEBEB"/>
<path transform="translate(813,265)" d="m0 0 4 1 4 6 5 3h6l8-6 3-2-1 4-5 5-5 2h-8l-6-4-5-7z" fill="#010101"/>
<path transform="translate(831,829)" d="m0 0 1 2-10 13-5 4-4 1 3-5z" fill="#D1C9CC"/>
<path transform="translate(594,399)" d="m0 0 4 2 5 5v8l-3-2-3-7-3-4z" fill="#F2E6EA"/>
<path transform="translate(813,837)" d="m0 0h2l-2 4-3 3h-2l-1 3-4 3-3-1 4-5h2v-2l5-1z" fill="#D9B5C2"/>
<path transform="translate(590,404)" d="m0 0 3 3 5 4 1 4-5-1v-2h-2l-2-3z" fill="#EBD0D9"/>
<path transform="translate(356,1097)" d="m0 0h10l-1 3h-9z" fill="#F8F2F4"/>
<path transform="translate(603,409)" d="m0 0h1l1 8-2 1-6-2 4-3z" fill="#BDA5AD"/>
<path transform="translate(590,395)" d="m0 0h2l1 6-2 2-3-2z" fill="#E0D9DC"/>
<path transform="translate(1082,175)" d="m0 0 3 1v2h-4z" fill="#FDFDFD"/>
<path transform="translate(361,78)" d="m0 0 3 1v2l-3-1z" fill="#FDFDFD"/>
</svg>
